<?xml version="1.0" encoding="utf-8"?>
<svg viewBox="0 0 167 167" xmlns="http://www.w3.org/2000/svg">
  <g transform="matrix(1, 0, 0, 1, -28.649799, -24.1717)">
    <g transform="matrix(1,0,0,1,0,0.75)">
      <g id="Background">
        <rect x="0.25" y="0" width="499.75" height="499.25" style="fill:white;"/>
      </g>
    </g>
    <g id="Objects">
      <g transform="matrix(1,0,0,1,128.507,57.0697)">
        <path d="M0,100.329C0,82.16 14.729,67.431 32.898,67.431C44.164,67.431 54.088,73.107 60.017,81.741C64.026,72.002 66.268,61.349 66.268,50.165C66.268,4.291 29.08,-32.898 -16.795,-32.898C-62.669,-32.898 -99.857,4.291 -99.857,50.165C-99.857,96.039 -62.669,133.227 -16.795,133.227C-5.881,133.227 4.512,131.066 14.059,127.241C5.576,121.29 0,111.477 0,100.329" style="fill:rgb(204,204,204);fill-rule:nonzero;"/>
      </g>
      <g transform="matrix(1,0,0,1,128.507,57.0707)">
        <path d="M0,100.328C0,82.159 14.729,67.43 32.898,67.43C42.91,67.43 51.767,71.997 57.801,79.053C61.279,70.081 63.26,60.364 63.26,50.164C63.26,5.95 27.419,-29.891 -16.795,-29.891C-61.008,-29.891 -96.849,5.95 -96.849,50.164C-96.849,94.377 -61.008,130.219 -16.795,130.219C-6.866,130.219 2.599,128.327 11.372,125.023C4.459,118.993 0,110.223 0,100.328" style="fill:rgb(223,221,222);fill-rule:nonzero;"/>
      </g>
      <g transform="matrix(1,0,0,1,128.507,82.4217)">
        <path d="M0,74.977C0,67.316 2.727,60.358 7.118,54.767C5.754,52.914 5.987,50.394 5.476,48.169C5.32,47.47 5.152,46.746 4.706,46.185C3.664,44.873 1.544,44.942 0.389,43.728C-0.31,42.993 -0.519,41.917 -0.541,40.903C-0.556,40.259 -0.5,39.592 -0.193,39.027C0.173,38.355 1.007,38.022 1.585,37.547C2.201,37.043 2.836,36.597 3.492,36.149C4.888,35.197 6.183,34.168 6.835,32.553C7.782,30.204 8.422,27.478 8.698,24.966C8.992,22.306 8.403,19.148 9.54,16.639C10.637,14.22 12.918,13.138 13.428,10.32C13.862,7.916 13.421,4.81 12.454,2.589C12.003,1.551 11.281,0.896 10.666,0.005C10.016,-0.938 10.438,-2.071 10.575,-3.164C10.986,-6.445 10.283,-9.753 9.584,-12.985C9.336,-14.131 9.086,-15.284 8.663,-16.378C7.776,-18.67 6.098,-20.628 4.016,-21.92C2.962,-22.574 1.757,-22.867 0.705,-23.485C-0.456,-24.167 -1.648,-24.724 -2.895,-25.255C-5.662,-26.43 -8.496,-27.464 -11.413,-28.2C-17.113,-29.639 -23.278,-29.89 -28.707,-27.33C-31.517,-26.001 -34.178,-23.635 -34.477,-20.541C-38.447,-21.666 -43.063,-19.823 -45.166,-16.272C-46.842,-13.444 -47.179,-10.162 -47.03,-6.938C-46.894,-3.984 -45.84,-1.308 -45.41,1.623C-45.29,2.433 -45.189,3.328 -45.641,4.011C-46.021,4.584 -46.724,4.887 -47.079,5.476C-47.341,5.909 -47.376,6.438 -47.407,6.944C-47.622,10.599 -47.769,14.531 -45.795,17.614C-45.517,18.048 -45.196,18.463 -44.789,18.779C-44.468,19.029 -44.101,19.212 -43.756,19.428C-42.077,20.475 -40.964,22.258 -40.344,24.136C-39.769,25.878 -39.864,27.696 -39.415,29.435C-39.05,30.853 -38.587,32.402 -38.079,33.791C-37.652,34.956 -36.869,35.662 -36.01,36.489C-35.118,37.35 -34.581,38.337 -33.292,38.697C-33.216,38.955 -33.078,39.189 -32.975,39.437C-32.702,40.091 -32.675,40.818 -32.651,41.528C-32.608,42.816 -32.486,44.854 -33.364,45.898C-34.47,47.21 -36.746,46.796 -37.783,48.294C-38.294,49.031 -38.293,49.99 -38.457,50.871C-39.134,54.521 -42.635,56.848 -45.841,58.719C-56.353,64.858 -66.867,70.888 -77.138,77.387C-62.462,94.217 -40.879,104.867 -16.795,104.867C-6.861,104.867 2.622,103.001 11.396,99.692C4.469,93.661 0,84.883 0,74.977" style="fill:rgb(84,111,122);fill-rule:nonzero;"/>
      </g>
      <g transform="matrix(0,-1,-1,0,161.405,128.274)">
        <path d="M-29.125,-29.125C-45.21,-29.125 -58.25,-16.085 -58.25,0C-58.25,16.086 -45.21,29.125 -29.125,29.125C-13.04,29.125 0,16.086 0,0C0,-16.085 -13.04,-29.125 -29.125,-29.125" style="fill:rgb(53,151,240);fill-rule:nonzero;"/>
      </g>
      <g transform="matrix(1,0,0,1,164.066,160.059)">
        <path d="M0,-5.321L0.002,-15.895C0.002,-17.364 -1.184,-18.56 -2.653,-18.56C-4.123,-18.56 -5.328,-17.364 -5.318,-15.904L-5.32,-5.32L-15.905,-5.318C-17.375,-5.318 -18.56,-4.123 -18.56,-2.653C-18.56,-1.183 -17.365,0.002 -15.895,0.002L-5.321,0L-5.323,10.574C-5.323,12.044 -4.138,13.239 -2.668,13.239C-1.933,13.239 -1.262,12.94 -0.782,12.46C-0.302,11.98 0.002,11.314 -0.003,10.584L-0.001,-0.001L10.583,-0.003C11.318,-0.003 11.98,-0.301 12.46,-0.782C12.94,-1.262 13.239,-1.933 13.239,-2.668C13.239,-4.137 12.043,-5.323 10.574,-5.323L0,-5.321Z" style="fill:white;fill-rule:nonzero;"/>
      </g>
    </g>
    <g id="Designed-by-Freepik"/>
  </g>
</svg>