<?xml version="1.0" encoding="utf-8"?>
<svg viewBox="0 0 73 73" style="fill-rule:evenodd;clip-rule:evenodd;stroke-linejoin:round;stroke-miterlimit:2;" xmlns="http://www.w3.org/2000/svg">
  <g transform="matrix(1, 0, 0, 1, -224.526993, -123.113998)">
    <g transform="matrix(1,0,0,1,0,0.75)">
      <g id="Background">
        <rect x="0.25" y="0" width="499.75" height="499.25" style="fill:white;"/>
      </g>
    </g>
    <g id="Objects">
      <g transform="matrix(1,0,0,1,260.982,126.244)">
        <path d="M0,66.65C-18.405,66.65 -33.325,51.73 -33.325,33.325C-33.325,14.92 -18.405,0 0,0C18.405,0 33.325,14.92 33.325,33.325C33.325,51.73 18.405,66.65 0,66.65M0,-3.13C-20.134,-3.13 -36.455,13.191 -36.455,33.325C-36.455,53.458 -20.134,69.78 0,69.78C20.134,69.78 36.455,53.458 36.455,33.325C36.455,13.191 20.134,-3.13 0,-3.13" style="fill:rgb(199,199,199);fill-rule:nonzero;"/>
      </g>
      <g transform="matrix(0,-1,-1,0,260.982,129.834)">
        <path d="M-29.735,-29.735C-46.157,-29.735 -59.47,-16.422 -59.47,0C-59.47,16.422 -46.157,29.735 -29.735,29.735C-13.313,29.735 0,16.422 0,0C0,-16.422 -13.313,-29.735 -29.735,-29.735" style="fill:rgb(223,221,222);fill-rule:nonzero;"/>
      </g>
      <g transform="matrix(0,-1,-1,0,260.982,128.717)">
        <path d="M-30.852,-30.852C-47.891,-30.852 -61.704,-17.039 -61.704,0C-61.704,17.039 -47.891,30.852 -30.852,30.852C-13.813,30.852 0,17.039 0,0C0,-17.039 -13.813,-30.852 -30.852,-30.852" style="fill:rgb(204,204,204);fill-rule:nonzero;"/>
      </g>
      <g transform="matrix(0,-1,-1,0,260.982,129.834)">
        <path d="M-29.735,-29.735C-46.157,-29.735 -59.47,-16.422 -59.47,0C-59.47,16.422 -46.157,29.735 -29.735,29.735C-13.313,29.735 0,16.422 0,0C0,-16.422 -13.313,-29.735 -29.735,-29.735" style="fill:rgb(223,221,222);fill-rule:nonzero;"/>
      </g>
      <g transform="matrix(1,0,0,1,253.186,160.263)">
        <path d="M0,8.027C-0.19,8.301 -0.189,8.657 -0.25,8.984C-0.502,10.34 -1.802,11.204 -2.993,11.899C-6.897,14.179 -10.803,16.419 -14.617,18.833C-9.166,25.084 -1.15,29.04 7.796,29.04C17.191,29.04 25.563,24.678 31.012,17.875C27.713,16.165 24.415,14.456 21.116,12.747C20.341,12.345 19.564,11.942 18.749,11.627C18.109,11.379 17.43,11.176 16.906,10.732C16.088,10.042 16.285,8.929 16.068,7.981C16.01,7.721 15.947,7.452 15.782,7.244C15.395,6.757 14.607,6.782 14.178,6.331C13.919,6.058 13.841,5.659 13.833,5.282C13.828,5.043 13.848,4.795 13.962,4.585C14.098,4.336 14.408,4.212 14.623,4.035C14.851,3.848 15.087,3.682 15.331,3.516C15.85,3.162 16.331,2.78 16.573,2.18C16.924,1.308 17.162,0.295 17.265,-0.637C17.374,-1.626 17.155,-2.798 17.578,-3.73C17.985,-4.629 18.832,-5.031 19.021,-6.078C19.183,-6.97 19.019,-8.124 18.66,-8.949C18.492,-9.335 18.224,-9.578 17.996,-9.909C17.754,-10.259 17.911,-10.68 17.962,-11.086C18.115,-12.305 17.853,-13.533 17.594,-14.734C17.502,-15.16 17.409,-15.588 17.251,-15.994C16.923,-16.845 16.299,-17.573 15.526,-18.053C15.134,-18.295 14.687,-18.404 14.296,-18.634C13.864,-18.887 13.422,-19.094 12.959,-19.291C11.931,-19.728 10.878,-20.112 9.795,-20.385C7.678,-20.92 5.388,-21.013 3.371,-20.062C2.328,-19.568 1.339,-18.69 1.228,-17.54C-0.246,-17.958 -1.961,-17.274 -2.742,-15.955C-3.365,-14.904 -3.49,-13.685 -3.434,-12.488C-3.384,-11.39 -2.992,-10.397 -2.832,-9.308C-2.788,-9.007 -2.75,-8.675 -2.918,-8.421C-3.059,-8.208 -3.321,-8.095 -3.453,-7.877C-3.55,-7.716 -3.563,-7.519 -3.574,-7.331C-3.654,-5.974 -3.709,-4.513 -2.976,-3.368C-2.872,-3.207 -2.753,-3.053 -2.602,-2.936C-2.483,-2.843 -2.346,-2.775 -2.218,-2.694C-1.595,-2.306 -1.181,-1.644 -0.951,-0.946C-0.737,-0.299 -0.773,0.376 -0.606,1.022C-0.47,1.549 -0.299,2.124 -0.11,2.64C0.049,3.073 0.34,3.335 0.659,3.642C0.99,3.962 1.19,4.329 1.668,4.463C1.697,4.558 1.748,4.645 1.786,4.737C1.887,4.98 1.897,5.25 1.906,5.514C1.922,5.992 1.968,6.749 1.641,7.137C1.231,7.625 0.386,7.471 0,8.027" style="fill:rgb(84,111,122);fill-rule:nonzero;"/>
      </g>
    </g>
    <g id="Designed-by-Freepik"/>
  </g>
</svg>